<svg width="49" height="50" viewBox="0 0 49 50" fill="none" xmlns="http://www.w3.org/2000/svg">
<rect y="0.710022" width="48.59" height="48.59" rx="14.4" fill="#1F325C"/>
<path d="M31.9314 21.7323L30.5678 18.7323L27.5678 17.3687L30.5678 16.0051L31.9314 13.0051L33.2951 16.0051L36.295 17.3687L33.2951 18.7323L31.9314 21.7323ZM31.9314 37.0051L30.5678 34.0051L27.5678 32.6414L30.5678 31.2778L31.9314 28.2778L33.2951 31.2778L36.295 32.6414L33.2951 34.0051L31.9314 37.0051ZM21.0223 33.7323L18.295 27.7324L12.295 25.0051L18.295 22.2778L21.0223 16.2778L23.7496 22.2778L29.7496 25.0051L23.7496 27.7324L21.0223 33.7323Z" fill="#F5F5F5"/>
</svg>
