<svg width="57" height="56" viewBox="0 0 57 56" fill="none" xmlns="http://www.w3.org/2000/svg">
<rect x="0.5" width="56" height="56" rx="28" fill="#1F325C"/>
<path d="M37.4091 24.1818L35.8182 20.6818L32.3182 19.0909L35.8182 17.5L37.4091 14L39 17.5L42.5 19.0909L39 20.6818L37.4091 24.1818ZM37.4091 42L35.8182 38.5L32.3182 36.9091L35.8182 35.3182L37.4091 31.8182L39 35.3182L42.5 36.9091L39 38.5L37.4091 42ZM24.6818 38.1818L21.5 31.1819L14.5 28.0001L21.5 24.8182L24.6818 17.8182L27.8637 24.8182L34.8637 28.0001L27.8637 31.1819L24.6818 38.1818Z" fill="#F5F5F5"/>
</svg>
